<svg xmlns="http://www.w3.org/2000/svg" xmlns:xlink="http://www.w3.org/1999/xlink" width="500" zoomAndPan="magnify" viewBox="0 0 375 374.999991" height="500" preserveAspectRatio="xMidYMid meet" version="1.0"><defs><g/><clipPath id="709615d5e8"><path d="M 87.683594 44.515625 L 287.570312 44.515625 L 287.570312 222.574219 L 87.683594 222.574219 Z M 87.683594 44.515625 " clip-rule="nonzero"/></clipPath></defs><g clip-path="url(#709615d5e8)"><path fill="#029d9d" d="M 177.875 222.359375 L 177.628906 222.359375 L 177.628906 104.027344 C 185.863281 101.058594 213.167969 109.335938 220.171875 131.21875 C 229.28125 172.570312 182.257812 190.558594 177.875 222.359375 Z M 179.660156 222.359375 L 222.074219 222.359375 L 222.074219 174.933594 C 212.9375 189.554688 187.96875 201.144531 179.660156 222.359375 Z M 262.472656 58.457031 C 260.699219 56.277344 258.710938 54.320312 256.503906 52.589844 C 254.296875 50.855469 251.925781 49.382812 249.394531 48.179688 C 246.859375 46.972656 244.222656 46.0625 241.484375 45.441406 C 238.746094 44.824219 235.972656 44.515625 233.167969 44.515625 L 87.710938 44.515625 L 108.929688 73.503906 C 109.804688 74.699219 110.742188 75.835938 111.75 76.921875 C 112.757812 78.003906 113.828125 79.023438 114.953125 79.980469 C 116.082031 80.941406 117.261719 81.828125 118.492188 82.648438 C 119.726562 83.464844 121 84.210938 122.320312 84.878906 C 123.640625 85.546875 124.992188 86.136719 126.382812 86.648438 C 127.769531 87.160156 129.183594 87.585938 130.625 87.929688 C 132.0625 88.273438 133.515625 88.53125 134.984375 88.707031 C 136.453125 88.878906 137.929688 88.964844 139.410156 88.964844 L 177.703125 88.964844 C 204.363281 88.992188 218.9375 102.5 222.089844 120.886719 L 222.089844 88.964844 L 287.273438 88.964844 Z M 262.472656 58.457031 " fill-opacity="1" fill-rule="nonzero"/></g><g fill="#029d9d" fill-opacity="1"><g transform="translate(77.802548, 325.582367)"><g><path d="M 12.515625 -11.578125 L 7.859375 -11.578125 L 7.859375 0 L 5.109375 0 L 5.109375 -11.578125 L 0.453125 -11.578125 L 0.453125 -13.734375 L 12.515625 -13.734375 Z M 12.515625 -11.578125 "/></g></g></g><g fill="#029d9d" fill-opacity="1"><g transform="translate(97.153271, 325.582367)"><g><path d="M 10.875 -5.515625 C 10.875 -5.128906 10.859375 -4.816406 10.828125 -4.578125 L 3.296875 -4.578125 C 3.460938 -2.628906 4.28125 -1.65625 5.75 -1.65625 C 6.351562 -1.65625 6.847656 -1.8125 7.234375 -2.125 C 7.628906 -2.445312 7.875 -2.882812 7.96875 -3.4375 L 10.703125 -3.4375 C 10.441406 -2.226562 9.863281 -1.304688 8.96875 -0.671875 C 8.070312 -0.0351562 6.976562 0.28125 5.6875 0.28125 C 4.164062 0.28125 2.925781 -0.191406 1.96875 -1.140625 C 1.007812 -2.085938 0.53125 -3.457031 0.53125 -5.25 C 0.53125 -6.894531 1.023438 -8.242188 2.015625 -9.296875 C 3.003906 -10.347656 4.300781 -10.875 5.90625 -10.875 C 7.457031 -10.875 8.671875 -10.359375 9.546875 -9.328125 C 10.429688 -8.304688 10.875 -7.035156 10.875 -5.515625 Z M 5.796875 -8.9375 C 4.429688 -8.9375 3.628906 -8.082031 3.390625 -6.375 L 8.046875 -6.375 C 7.859375 -8.082031 7.109375 -8.9375 5.796875 -8.9375 Z M 5.796875 -8.9375 "/></g></g></g><g fill="#029d9d" fill-opacity="1"><g transform="translate(115.608214, 325.582367)"><g><path d="M 11.125 -7.90625 C 11.175781 -7.425781 11.203125 -6.78125 11.203125 -5.96875 L 11.203125 0 L 8.453125 0 L 8.453125 -5.59375 C 8.453125 -6.21875 8.441406 -6.707031 8.421875 -7.0625 C 8.328125 -8.3125 7.648438 -8.9375 6.390625 -8.9375 C 5.671875 -8.9375 5.09375 -8.597656 4.65625 -7.921875 C 4.21875 -7.253906 4 -6.226562 4 -4.84375 L 4 0 L 1.25 0 L 1.25 -10.59375 L 4 -10.59375 L 4 -8.875 L 4.8125 -10.125 C 5.507812 -10.625 6.359375 -10.875 7.359375 -10.875 C 8.472656 -10.875 9.351562 -10.613281 10 -10.09375 C 10.644531 -9.570312 11.019531 -8.84375 11.125 -7.90625 Z M 11.125 -7.90625 "/></g></g></g><g fill="#029d9d" fill-opacity="1"><g transform="translate(134.919109, 325.582367)"><g><path d="M 11.546875 -14.625 L 11.546875 0 L 8.796875 0 L 8.796875 -1.625 L 8 -0.453125 C 7.363281 0.0351562 6.445312 0.28125 5.25 0.28125 C 3.789062 0.28125 2.640625 -0.210938 1.796875 -1.203125 C 0.953125 -2.203125 0.53125 -3.5 0.53125 -5.09375 C 0.53125 -6.925781 1.015625 -8.347656 1.984375 -9.359375 C 2.953125 -10.367188 4.160156 -10.875 5.609375 -10.875 C 6.703125 -10.875 7.535156 -10.671875 8.109375 -10.265625 L 8.796875 -9.171875 L 8.796875 -14.625 Z M 6.046875 -1.65625 C 6.867188 -1.65625 7.53125 -1.9375 8.03125 -2.5 C 8.539062 -3.0625 8.796875 -3.953125 8.796875 -5.171875 L 8.796875 -5.6875 C 8.796875 -6.789062 8.535156 -7.609375 8.015625 -8.140625 C 7.503906 -8.671875 6.882812 -8.9375 6.15625 -8.9375 C 5.332031 -8.9375 4.664062 -8.617188 4.15625 -7.984375 C 3.644531 -7.359375 3.390625 -6.457031 3.390625 -5.28125 C 3.390625 -4.1875 3.628906 -3.304688 4.109375 -2.640625 C 4.597656 -1.984375 5.242188 -1.65625 6.046875 -1.65625 Z M 6.046875 -1.65625 "/></g></g></g><g fill="#029d9d" fill-opacity="1"><g transform="translate(154.707758, 325.582367)"><g><path d="M 7.40625 0 L 7.203125 -1.546875 L 6.6875 -0.421875 C 6 0.046875 5.125 0.28125 4.0625 0.28125 C 3.09375 0.28125 2.28125 0.0078125 1.625 -0.53125 C 0.976562 -1.082031 0.65625 -1.84375 0.65625 -2.8125 C 0.65625 -3.976562 1.148438 -4.875 2.140625 -5.5 C 3.128906 -6.132812 4.578125 -6.453125 6.484375 -6.453125 L 7.171875 -6.453125 L 7.171875 -6.671875 C 7.171875 -7.097656 7.15625 -7.425781 7.125 -7.65625 C 7.03125 -8.507812 6.488281 -8.9375 5.5 -8.9375 C 4.394531 -8.9375 3.800781 -8.335938 3.71875 -7.140625 L 1.0625 -7.125 C 1.09375 -8.289062 1.53125 -9.207031 2.375 -9.875 C 3.21875 -10.539062 4.289062 -10.875 5.59375 -10.875 C 8.238281 -10.875 9.648438 -9.832031 9.828125 -7.75 C 9.867188 -7.238281 9.890625 -6.691406 9.890625 -6.109375 L 9.890625 -2.6875 C 9.890625 -1.875 9.957031 -0.976562 10.09375 0 Z M 5.109375 -1.65625 C 5.691406 -1.65625 6.179688 -1.851562 6.578125 -2.25 C 6.972656 -2.644531 7.171875 -3.195312 7.171875 -3.90625 L 7.171875 -4.75 C 4.722656 -4.925781 3.5 -4.351562 3.5 -3.03125 C 3.5 -2.113281 4.035156 -1.65625 5.109375 -1.65625 Z M 5.109375 -1.65625 "/></g></g></g><g fill="#029d9d" fill-opacity="1"><g transform="translate(172.844204, 325.582367)"><g><path d="M 11.125 -7.90625 C 11.175781 -7.425781 11.203125 -6.78125 11.203125 -5.96875 L 11.203125 0 L 8.453125 0 L 8.453125 -5.59375 C 8.453125 -6.21875 8.441406 -6.707031 8.421875 -7.0625 C 8.328125 -8.3125 7.648438 -8.9375 6.390625 -8.9375 C 5.671875 -8.9375 5.09375 -8.597656 4.65625 -7.921875 C 4.21875 -7.253906 4 -6.226562 4 -4.84375 L 4 0 L 1.25 0 L 1.25 -10.59375 L 4 -10.59375 L 4 -8.875 L 4.8125 -10.125 C 5.507812 -10.625 6.359375 -10.875 7.359375 -10.875 C 8.472656 -10.875 9.351562 -10.613281 10 -10.09375 C 10.644531 -9.570312 11.019531 -8.84375 11.125 -7.90625 Z M 11.125 -7.90625 "/></g></g></g><g fill="#029d9d" fill-opacity="1"><g transform="translate(192.155103, 325.582367)"><g/></g></g><g fill="#029d9d" fill-opacity="1"><g transform="translate(202.966157, 325.582367)"><g><path d="M 12.515625 -11.578125 L 7.859375 -11.578125 L 7.859375 0 L 5.109375 0 L 5.109375 -11.578125 L 0.453125 -11.578125 L 0.453125 -13.734375 L 12.515625 -13.734375 Z M 12.515625 -11.578125 "/></g></g></g><g fill="#029d9d" fill-opacity="1"><g transform="translate(222.316881, 325.582367)"><g><path d="M 6.65625 -10.84375 C 6.957031 -10.84375 7.210938 -10.816406 7.421875 -10.765625 L 7.421875 -8.5625 C 6.253906 -8.632812 5.390625 -8.382812 4.828125 -7.8125 C 4.273438 -7.238281 4 -6.253906 4 -4.859375 L 4 0 L 1.25 0 L 1.25 -10.59375 L 4 -10.59375 L 4 -8.65625 L 4.84375 -10.125 C 5.351562 -10.601562 5.957031 -10.84375 6.65625 -10.84375 Z M 6.65625 -10.84375 "/></g></g></g><g fill="#029d9d" fill-opacity="1"><g transform="translate(236.830457, 325.582367)"><g><path d="M 7.40625 0 L 7.203125 -1.546875 L 6.6875 -0.421875 C 6 0.046875 5.125 0.28125 4.0625 0.28125 C 3.09375 0.28125 2.28125 0.0078125 1.625 -0.53125 C 0.976562 -1.082031 0.65625 -1.84375 0.65625 -2.8125 C 0.65625 -3.976562 1.148438 -4.875 2.140625 -5.5 C 3.128906 -6.132812 4.578125 -6.453125 6.484375 -6.453125 L 7.171875 -6.453125 L 7.171875 -6.671875 C 7.171875 -7.097656 7.15625 -7.425781 7.125 -7.65625 C 7.03125 -8.507812 6.488281 -8.9375 5.5 -8.9375 C 4.394531 -8.9375 3.800781 -8.335938 3.71875 -7.140625 L 1.0625 -7.125 C 1.09375 -8.289062 1.53125 -9.207031 2.375 -9.875 C 3.21875 -10.539062 4.289062 -10.875 5.59375 -10.875 C 8.238281 -10.875 9.648438 -9.832031 9.828125 -7.75 C 9.867188 -7.238281 9.890625 -6.691406 9.890625 -6.109375 L 9.890625 -2.6875 C 9.890625 -1.875 9.957031 -0.976562 10.09375 0 Z M 5.109375 -1.65625 C 5.691406 -1.65625 6.179688 -1.851562 6.578125 -2.25 C 6.972656 -2.644531 7.171875 -3.195312 7.171875 -3.90625 L 7.171875 -4.75 C 4.722656 -4.925781 3.5 -4.351562 3.5 -3.03125 C 3.5 -2.113281 4.035156 -1.65625 5.109375 -1.65625 Z M 5.109375 -1.65625 "/></g></g></g><g fill="#029d9d" fill-opacity="1"><g transform="translate(254.966894, 325.582367)"><g><path d="M 11.28125 -10.59375 L 7.1875 0 L 4.125 0 L 0 -10.59375 L 3.046875 -10.59375 L 5.71875 -2.0625 L 8.328125 -10.59375 Z M 11.28125 -10.59375 "/></g></g></g><g fill="#029d9d" fill-opacity="1"><g transform="translate(273.182965, 325.582367)"><g><path d="M 10.875 -5.515625 C 10.875 -5.128906 10.859375 -4.816406 10.828125 -4.578125 L 3.296875 -4.578125 C 3.460938 -2.628906 4.28125 -1.65625 5.75 -1.65625 C 6.351562 -1.65625 6.847656 -1.8125 7.234375 -2.125 C 7.628906 -2.445312 7.875 -2.882812 7.96875 -3.4375 L 10.703125 -3.4375 C 10.441406 -2.226562 9.863281 -1.304688 8.96875 -0.671875 C 8.070312 -0.0351562 6.976562 0.28125 5.6875 0.28125 C 4.164062 0.28125 2.925781 -0.191406 1.96875 -1.140625 C 1.007812 -2.085938 0.53125 -3.457031 0.53125 -5.25 C 0.53125 -6.894531 1.023438 -8.242188 2.015625 -9.296875 C 3.003906 -10.347656 4.300781 -10.875 5.90625 -10.875 C 7.457031 -10.875 8.671875 -10.359375 9.546875 -9.328125 C 10.429688 -8.304688 10.875 -7.035156 10.875 -5.515625 Z M 5.796875 -8.9375 C 4.429688 -8.9375 3.628906 -8.082031 3.390625 -6.375 L 8.046875 -6.375 C 7.859375 -8.082031 7.109375 -8.9375 5.796875 -8.9375 Z M 5.796875 -8.9375 "/></g></g></g><g fill="#029d9d" fill-opacity="1"><g transform="translate(291.637902, 325.582367)"><g><path d="M 3.921875 -14.625 L 3.921875 -3.46875 C 3.921875 -3 3.925781 -2.671875 3.9375 -2.484375 C 3.96875 -2.203125 4.066406 -2.015625 4.234375 -1.921875 C 4.410156 -1.835938 4.722656 -1.804688 5.171875 -1.828125 L 5.171875 0.0625 C 4.691406 0.113281 4.128906 0.140625 3.484375 0.140625 C 2.023438 0.140625 1.269531 -0.484375 1.21875 -1.734375 C 1.1875 -2.046875 1.171875 -2.601562 1.171875 -3.40625 L 1.171875 -14.625 Z M 3.921875 -14.625 "/></g></g></g><g fill="#029d9d" fill-opacity="1"><g transform="translate(49.331795, 295.02503)"><g><path d="M 34.46875 -38.0625 L 32.921875 -28.734375 L 21.765625 -28.734375 L 21.765625 0 L 11.046875 0 L 11.046875 -28.734375 L -0.859375 -28.734375 L -0.859375 -38.0625 Z M 34.46875 -38.0625 "/></g></g></g><g fill="#029d9d" fill-opacity="1"><g transform="translate(94.73158, 295.02503)"><g><path d="M 30.984375 -28.890625 L 13.78125 -28.890625 L 13.78125 -23.703125 L 29.59375 -23.703125 L 29.59375 -14.53125 L 13.78125 -14.53125 L 13.78125 -9.171875 L 31.421875 -9.171875 L 30.765625 0 L 3.21875 0 L 3.21875 -38.0625 L 30.984375 -38.0625 Z M 30.984375 -28.890625 "/></g></g></g><g fill="#029d9d" fill-opacity="1"><g transform="translate(139.273798, 295.02503)"><g><path d="M 27.5 -38.0625 L 37.796875 -38.0625 L 37.796875 0 L 28.25 0 L 13.515625 -20.484375 L 13.515625 0 L 3.21875 0 L 3.21875 -38.0625 L 12.765625 -38.0625 L 27.5 -17.640625 Z M 27.5 -38.0625 "/></g></g></g><g fill="#029d9d" fill-opacity="1"><g transform="translate(192.927571, 295.02503)"><g><path d="M 34.46875 -38.0625 L 32.921875 -28.734375 L 21.765625 -28.734375 L 21.765625 0 L 11.046875 0 L 11.046875 -28.734375 L -0.859375 -28.734375 L -0.859375 -38.0625 Z M 34.46875 -38.0625 "/></g></g></g><g fill="#029d9d" fill-opacity="1"><g transform="translate(238.32735, 295.02503)"><g><path d="M 36.78125 -9.859375 L 39.234375 -1.609375 C 38.378906 -0.929688 37.238281 -0.390625 35.8125 0.015625 C 34.382812 0.429688 32.9375 0.640625 31.46875 0.640625 C 28.644531 0.640625 26.300781 0.125 24.4375 -0.90625 C 22.582031 -1.945312 21.082031 -3.414062 19.9375 -5.3125 L 16.40625 -11.265625 C 15.976562 -11.972656 15.566406 -12.503906 15.171875 -12.859375 C 14.773438 -13.222656 14.289062 -13.457031 13.71875 -13.5625 L 13.71875 0 L 3.21875 0 L 3.21875 -38.0625 L 16.078125 -38.0625 C 21.941406 -38.0625 26.273438 -36.953125 29.078125 -34.734375 C 31.890625 -32.523438 33.296875 -29.453125 33.296875 -25.515625 C 33.296875 -22.734375 32.488281 -20.421875 30.875 -18.578125 C 29.269531 -16.734375 27.144531 -15.4375 24.5 -14.6875 C 25.851562 -14.257812 26.925781 -13.457031 27.71875 -12.28125 L 28.6875 -10.828125 C 29.570312 -9.429688 30.945312 -8.734375 32.8125 -8.734375 C 33.488281 -8.734375 34.15625 -8.8125 34.8125 -8.96875 C 35.476562 -9.132812 36.132812 -9.429688 36.78125 -9.859375 Z M 15.96875 -29.4375 L 13.71875 -29.4375 L 13.71875 -21.875 L 16.453125 -21.875 C 18.773438 -21.875 20.390625 -22.1875 21.296875 -22.8125 C 22.210938 -23.4375 22.671875 -24.410156 22.671875 -25.734375 C 22.671875 -27.160156 22.054688 -28.132812 20.828125 -28.65625 C 19.597656 -29.175781 17.976562 -29.4375 15.96875 -29.4375 Z M 15.96875 -29.4375 "/></g></g></g><g fill="#029d9d" fill-opacity="1"><g transform="translate(287.746925, 295.02503)"><g><path d="M -2.09375 0 L 14.6875 -38.0625 L 23.59375 -38.0625 L 39.78125 0 L 28.953125 0 L 26.265625 -6.8125 L 11.53125 -6.8125 L 8.734375 0 Z M 15.171875 -15.65625 L 22.734375 -15.65625 L 19.03125 -24.984375 Z M 15.171875 -15.65625 "/></g></g></g></svg>